<svg xmlns="http://www.w3.org/2000/svg" viewBox="0 0 32 32" fill="none" stroke="#3f2e14" stroke-width="1.6" stroke-linecap="round" stroke-linejoin="round">
  <path d="M16 28V10"/>
  <path d="M16 18c-3-1-5-3-5-6"/>
  <path d="M16 18c3-1 5-3 5-6"/>
  <path d="M16 14c-2-1-4-3-4-6"/>
  <path d="M16 14c2-1 4-3 4-6"/>
  <path d="M16 22c-4-1-7-4-7-8"/>
  <path d="M16 22c4-1 7-4 7-8"/>
  <circle cx="11" cy="12" r="1.3" fill="#9a7b3f" stroke="none"/>
  <circle cx="21" cy="12" r="1.3" fill="#9a7b3f" stroke="none"/>
  <circle cx="12" cy="8" r="1.1" fill="#9a7b3f" stroke="none"/>
  <circle cx="20" cy="8" r="1.1" fill="#9a7b3f" stroke="none"/>
  <circle cx="9" cy="14" r="1.3" fill="#9a7b3f" stroke="none"/>
  <circle cx="23" cy="14" r="1.3" fill="#9a7b3f" stroke="none"/>
  <path d="M12 30h8" stroke-width="2"/>
</svg>
